<svg width="56" height="52" viewBox="0 0 56 52" fill="none" xmlns="http://www.w3.org/2000/svg">
<g clip-path="url(#clip0_26_54)">
<path d="M42.3725 42.4443L46.4465 40L42.3725 37.5557V42.4443Z" fill="#7886C7"/>
<path d="M44 28C37.373 28 32 33.3723 32 40C32 46.6278 37.373 52 44 52C50.627 52 56 46.627 56 40C56 33.373 50.627 28 44 28ZM50.516 40.5258C50.516 41.6508 50.3855 42.7758 50.3855 42.7758C50.3855 42.7758 50.258 43.7343 49.868 44.155C49.3722 44.7085 48.8172 44.7115 48.5623 44.7445C46.7382 44.884 44 44.8885 44 44.8885C44 44.8885 40.6115 44.8555 39.569 44.749C39.2787 44.6912 38.6285 44.7078 38.132 44.155C37.7412 43.7335 37.6145 42.7758 37.6145 42.7758C37.6145 42.7758 37.484 41.6515 37.484 40.5258V39.4713C37.484 38.3463 37.6145 37.222 37.6145 37.222C37.6145 37.222 37.742 36.2635 38.132 35.8412C38.6277 35.287 39.1827 35.284 39.4377 35.2525C41.261 35.1115 43.997 35.1115 43.997 35.1115H44.003C44.003 35.1115 46.739 35.1115 48.5623 35.2525C48.8165 35.284 49.3722 35.287 49.868 35.8405C50.2587 36.2628 50.3855 37.2213 50.3855 37.2213C50.3855 37.2213 50.516 38.3463 50.516 39.4713V40.5258Z" fill="#7886C7"/>
</g>
<g clip-path="url(#clip1_26_54)">
<path d="M13 42.4609C14.3591 42.4609 15.4609 41.3591 15.4609 40C15.4609 38.6409 14.3591 37.5391 13 37.5391C11.6409 37.5391 10.5391 38.6409 10.5391 40C10.5391 41.3591 11.6409 42.4609 13 42.4609Z" fill="#7886C7"/>
<path d="M13 28.2812C6.52792 28.2812 1.28125 33.5279 1.28125 40C1.28125 46.4721 6.52792 51.7188 13 51.7188C19.4721 51.7188 24.7188 46.4721 24.7188 40C24.7188 33.5279 19.4721 28.2812 13 28.2812ZM20.2402 42.9784C20.184 44.0926 19.8709 45.1912 19.059 45.9945C18.2392 46.8055 17.1353 47.1076 16.0105 47.1633H9.98959C8.86459 47.1076 7.76087 46.8056 6.94108 45.9945C6.12911 45.1912 5.81608 44.0926 5.75983 42.9784V37.0216C5.81608 35.9074 6.12916 34.8088 6.94108 34.0054C7.76087 33.1945 8.86473 32.8923 9.98959 32.8367H16.0104C17.1354 32.8923 18.2391 33.1944 19.0589 34.0054C19.8709 34.8088 20.1839 35.9074 20.2402 37.0216L20.2402 42.9784Z" fill="#7886C7"/>
<path d="M15.9344 34.194C14.4678 34.1538 11.5325 34.1538 10.066 34.194C9.30282 34.2149 8.43765 34.4049 7.8939 34.9857C7.32887 35.5894 7.11536 36.3188 7.0937 37.1347C7.05564 38.5668 7.0937 42.8653 7.0937 42.8653C7.1185 43.6811 7.32887 44.4106 7.8939 45.0143C8.43765 45.5953 9.30282 45.7851 10.066 45.806C11.5325 45.8463 14.4678 45.8463 15.9344 45.806C16.6975 45.7851 17.5627 45.5951 18.1065 45.0143C18.6715 44.4106 18.885 43.6812 18.9067 42.8653V37.1347C18.885 36.3188 18.6715 35.5894 18.1065 34.9857C17.5625 34.4047 16.6974 34.2149 15.9344 34.194ZM13 43.8145C12.2456 43.8145 11.5081 43.5907 10.8808 43.1716C10.2535 42.7525 9.76461 42.1567 9.4759 41.4597C9.18719 40.7627 9.11166 39.9958 9.25884 39.2558C9.40602 38.5159 9.76931 37.8362 10.3028 37.3028C10.8362 36.7693 11.5159 36.406 12.2558 36.2588C12.9958 36.1117 13.7627 36.1872 14.4597 36.4759C15.1567 36.7646 15.7525 37.2535 16.1716 37.8808C16.5907 38.5081 16.8144 39.2456 16.8144 40C16.8144 41.0117 16.4126 41.9819 15.6972 42.6972C14.9819 43.4126 14.0117 43.8145 13 43.8145ZM16.8307 36.9729C16.6798 36.9729 16.5323 36.9281 16.4069 36.8442C16.2814 36.7604 16.1837 36.6412 16.126 36.5018C16.0683 36.3624 16.0532 36.209 16.0826 36.0611C16.1121 35.9131 16.1848 35.7772 16.2915 35.6705C16.3982 35.5638 16.5341 35.4912 16.6821 35.4618C16.8301 35.4323 16.9835 35.4475 17.1228 35.5052C17.2622 35.563 17.3814 35.6607 17.4652 35.7862C17.549 35.9116 17.5937 36.0591 17.5937 36.21C17.5937 36.3102 17.574 36.4094 17.5357 36.502C17.4973 36.5946 17.4411 36.6787 17.3702 36.7495C17.2994 36.8204 17.2153 36.8766 17.1227 36.9149C17.0301 36.9532 16.9309 36.9729 16.8307 36.9729Z" fill="#7886C7"/>
</g>
<g clip-path="url(#clip2_26_54)">
<path fill-rule="evenodd" clip-rule="evenodd" d="M11.9616 0.363656C14.1251 0.388344 16.0796 0.920062 17.8251 1.95881C19.5497 2.9768 20.9843 4.42022 21.9918 6.15103C23.0242 7.907 23.5527 9.8733 23.5773 12.0499C23.516 15.028 22.5767 17.5716 20.7593 19.6807C18.942 21.7898 16.6144 23.0946 14.2049 23.5948V15.2452H16.4829L16.9981 11.9639H13.5487V9.81478C13.5295 9.36925 13.6704 8.93158 13.9459 8.58089C14.2218 8.22923 14.7075 8.04441 15.4033 8.02641H17.4862V5.15212C17.4563 5.1425 17.1727 5.10447 16.6354 5.03803C16.0261 4.96673 15.4133 4.92864 14.7998 4.92394C13.4113 4.93034 12.3131 5.32203 11.5054 6.099C10.6976 6.87572 10.2849 7.99947 10.2674 9.47025V11.9639H7.64244V15.2452H10.2674V23.5949C7.30893 23.0947 4.98135 21.7899 3.16401 19.6808C1.34666 17.5717 0.407382 15.028 0.346069 12.0499C0.370601 9.8732 0.899101 7.90691 1.93157 6.15103C2.93903 4.4202 4.37368 2.97677 6.09834 1.95877C7.84377 0.920234 9.79821 0.388562 11.9616 0.363656Z" fill="#7886C7"/>
</g>
<g clip-path="url(#clip3_26_54)">
<path d="M44 0C37.3736 0 32 5.37361 32 12C32 18.6264 37.3736 24 44 24C50.6264 24 56 18.6264 56 12C56 5.37361 50.6264 0 44 0ZM40.513 18.1406H37.5904V9.34809H40.5129L40.513 18.1406ZM39.0517 8.14744H39.0327C38.052 8.14744 37.4177 7.47234 37.4177 6.62859C37.4177 5.76581 38.0714 5.10938 39.0712 5.10938C40.0709 5.10938 40.6862 5.76581 40.7052 6.62859C40.7052 7.47234 40.0709 8.14748 39.0517 8.14748V8.14744ZM51.0511 18.1406H48.1289V13.4368C48.1289 12.2547 47.7058 11.4485 46.6483 11.4485C45.841 11.4485 45.3602 11.9923 45.1489 12.5173C45.0716 12.7051 45.0527 12.9677 45.0527 13.2305V18.1406H42.1303C42.1303 18.1406 42.1686 10.173 42.1303 9.34809H45.0527V10.593C45.4411 9.99394 46.136 9.14175 47.6865 9.14175C49.6093 9.14175 51.0511 10.3984 51.0511 13.099V18.1406Z" fill="#7886C7"/>
</g>
<defs>
<clipPath id="clip0_26_54">
<rect width="24" height="24" fill="white" transform="translate(32 28)"/>
</clipPath>
<clipPath id="clip1_26_54">
<rect width="24" height="24" fill="white" transform="translate(1 28)"/>
</clipPath>
<clipPath id="clip2_26_54">
<rect width="24" height="24" fill="white"/>
</clipPath>
<clipPath id="clip3_26_54">
<rect width="24" height="24" fill="white" transform="translate(32)"/>
</clipPath>
</defs>
</svg>
