<svg width="1441" height="300" viewBox="0 0 1441 300" fill="none" xmlns="http://www.w3.org/2000/svg">
<rect width="450" height="300" fill="#7886C7"/>
<rect x="495" width="450" height="300" fill="#7886C7"/>
<rect x="990" width="451" height="300" fill="#7886C7"/>
<circle cx="1394" cy="150" r="30" fill="#D9D9D9"/>
<path d="M1405.11 148.439L1387.31 130.639C1386.9 130.227 1386.35 130 1385.76 130C1385.18 130 1384.63 130.227 1384.22 130.639L1382.91 131.95C1382.05 132.804 1382.05 134.192 1382.91 135.044L1397.85 149.992L1382.89 164.956C1382.48 165.368 1382.25 165.917 1382.25 166.503C1382.25 167.089 1382.48 167.638 1382.89 168.051L1384.2 169.361C1384.61 169.773 1385.16 170 1385.75 170C1386.33 170 1386.88 169.773 1387.29 169.361L1405.11 151.545C1405.52 151.131 1405.75 150.579 1405.75 149.993C1405.75 149.404 1405.52 148.852 1405.11 148.439Z" fill="#7886C7"/>
<circle cx="46" cy="150" r="30" fill="#D9D9D9"/>
<path d="M42.147 150.008L57.1109 135.044C57.523 134.633 57.7496 134.083 57.7496 133.497C57.7496 132.911 57.523 132.362 57.1109 131.95L55.7997 130.639C55.3883 130.227 54.8384 130 54.2524 130C53.6664 130 53.1171 130.227 52.7054 130.639L34.8885 148.456C34.4752 148.869 34.2488 149.421 34.2504 150.007C34.2488 150.597 34.4748 151.148 34.8885 151.561L52.6888 169.361C53.1005 169.773 53.6498 170 54.2361 170C54.8221 170 55.3714 169.773 55.7834 169.361L57.0943 168.05C57.9473 167.197 57.9473 165.808 57.0943 164.956L42.147 150.008Z" fill="#7886C7"/>
</svg>
