<svg width="20" height="15" viewBox="0 0 20 15" fill="none" xmlns="http://www.w3.org/2000/svg">
<path d="M18.4536 7.66361V0L17.01 0.481232V7.66361C16.1122 7.96588 15.4636 8.81501 15.4636 9.81332V13.6792C15.4636 14.0779 15.7868 14.401 16.1855 14.401H19.2781C19.6768 14.401 20 14.0779 20 13.6792V9.81332C20 8.81501 19.3514 7.96588 18.4536 7.66361ZM6.99591 3.36285L0 1.03089V5.94745C1.2855e-06 6.04225 0.0186756 6.13612 0.0549569 6.2237C0.0912383 6.31128 0.144416 6.39086 0.211453 6.45789C2.20674 8.45293 4.85943 9.55168 7.68079 9.55168C10.5022 9.55168 13.1547 8.45293 15.1495 6.45779C15.2849 6.32244 15.3609 6.13886 15.3609 5.94745V1.03089L8.36525 3.3628C7.92082 3.5109 7.44035 3.51092 6.99591 3.36285Z" fill="#666A93"/>
</svg>
