<svg width="24" height="21" viewBox="0 0 24 21" fill="none" xmlns="http://www.w3.org/2000/svg">
<path d="M20.5355 10.9913H18.6795C18.8686 11.5092 18.972 12.0682 18.972 12.6508V19.6657C18.972 19.9086 18.9297 20.1418 18.8528 20.3586H21.9213C23.0675 20.3586 24 19.4261 24 18.2799V14.4558C24.0001 12.5455 22.4459 10.9913 20.5355 10.9913ZM5.02806 12.6509C5.02806 12.0682 5.13142 11.5093 5.32061 10.9913H3.46454C1.55419 10.9913 0 12.5455 0 14.4559V18.28C0 19.4262 0.932487 20.3587 2.07872 20.3587H5.14726C5.06829 20.1362 5.02797 19.9018 5.02806 19.6658V12.6509ZM14.1216 9.18635H9.87842C7.96807 9.18635 6.41388 10.7405 6.41388 12.6509V19.6658C6.41388 20.0484 6.72409 20.3587 7.10678 20.3587H16.8933C17.276 20.3587 17.5862 20.0484 17.5862 19.6658V12.6509C17.5862 10.7405 16.032 9.18635 14.1216 9.18635ZM12 0C9.70259 0 7.83349 1.8691 7.83349 4.16659C7.83349 5.72495 8.6936 7.08597 9.96382 7.80054C10.5663 8.13944 11.2609 8.33313 12 8.33313C12.7392 8.33313 13.4338 8.13944 14.0362 7.80054C15.3065 7.08597 16.1666 5.7249 16.1666 4.16659C16.1666 1.86915 14.2975 0 12 0ZM4.68367 3.88356C2.96546 3.88356 1.56764 5.28137 1.56764 6.99958C1.56764 8.71779 2.96546 10.1156 4.68367 10.1156C5.1059 10.116 5.52375 10.03 5.91156 9.86304C6.56341 9.5824 7.10088 9.08562 7.43346 8.46335C7.67438 8.0131 7.8002 7.51024 7.79969 6.99958C7.79969 5.28142 6.40188 3.88356 4.68367 3.88356ZM19.3164 3.88356C17.5982 3.88356 16.2004 5.28137 16.2004 6.99958C16.1999 7.51024 16.3257 8.0131 16.5666 8.46335C16.8992 9.08566 17.4367 9.58245 18.0885 9.86304C18.4763 10.03 18.8942 10.116 19.3164 10.1156C21.0346 10.1156 22.4324 8.71779 22.4324 6.99958C22.4324 5.28137 21.0346 3.88356 19.3164 3.88356Z" fill="#666A93"/>
</svg>
