<svg width="39" height="39" viewBox="0 0 39 39" fill="none" xmlns="http://www.w3.org/2000/svg">
<path fill-rule="evenodd" clip-rule="evenodd" d="M19.4999 7.86868e-05C23.1318 0.0415234 26.413 0.934158 29.3433 2.67798C32.2385 4.38696 34.647 6.81012 36.3382 9.71577C38.0714 12.6636 38.9587 15.9646 39 19.6187C38.8971 24.6183 37.3201 28.8884 34.2692 32.429C31.2183 35.9698 27.3109 38.1602 23.2659 38.9999V24.9827H27.0901L27.955 19.4743H22.1642V15.8664C22.1321 15.1184 22.3686 14.3837 22.8311 13.795C23.2941 13.2046 24.1096 12.8943 25.2776 12.8641H28.7744V8.03883C28.7242 8.02267 28.2481 7.95883 27.3461 7.84729C26.3232 7.72759 25.2944 7.66365 24.2645 7.65576C21.9335 7.66651 20.09 8.32407 18.7339 9.62842C17.3778 10.9324 16.6851 12.8189 16.6557 15.288V19.4743H12.249V24.9827H16.6557V39C11.6891 38.1604 7.78159 35.9699 4.73068 32.4292C1.67977 28.8885 0.10293 24.6182 0 19.6187C0.0411824 15.9645 0.928414 12.6635 2.6617 9.71577C4.353 6.8101 6.76145 4.3869 9.65675 2.67791C12.5869 0.934447 15.868 0.0418906 19.4999 7.86868e-05Z" fill="#FFF2F2"/>
</svg>
