<svg width="24" height="9" viewBox="0 0 24 9" fill="none" xmlns="http://www.w3.org/2000/svg">
<path d="M12 8.93741C12.0751 8.93741 12.1502 8.92536 12.2224 8.90132L23.5193 5.13571C23.6592 5.08904 23.781 4.9995 23.8673 4.87979C23.9536 4.76007 24 4.61624 24 4.46868C24 4.32111 23.9536 4.17728 23.8673 4.05757C23.781 3.93785 23.6592 3.84832 23.5193 3.80164L12.2224 0.036035C12.0781 -0.0120117 11.922 -0.0120117 11.7777 0.036035L0.480844 3.80164C0.340829 3.84829 0.219043 3.93782 0.132742 4.05754C0.0464406 4.17725 0 4.32109 0 4.46868C0 4.61626 0.0464406 4.7601 0.132742 4.87981C0.219043 4.99953 0.340829 5.08906 0.480844 5.13571L11.7777 8.90132C11.8499 8.92536 11.925 8.93741 12 8.93741Z" fill="#666A93"/>
</svg>
