<svg width="20" height="20" viewBox="0 0 20 20" fill="none" xmlns="http://www.w3.org/2000/svg">
<path d="M14.9749 0.0509963C12.4956 -0.0169988 7.53303 -0.0169988 5.05366 0.0509963C3.76342 0.0864204 2.30073 0.407614 1.38145 1.3895C0.42619 2.41014 0.0652126 3.64325 0.0285999 5.02272C-0.0357498 7.44392 0.0285999 14.711 0.0285999 14.711C0.0705222 16.0903 0.42619 17.3236 1.38145 18.3442C2.30073 19.3264 3.76342 19.6473 5.05366 19.6827C7.53303 19.7507 12.4956 19.7507 14.9749 19.6827C16.2652 19.6473 17.7279 19.3261 18.6471 18.3442C19.6024 17.3236 19.9634 16.0905 20 14.711V5.02272C19.9634 3.64325 19.6024 2.41014 18.6471 1.3895C17.7275 0.407297 16.2648 0.0864204 14.9749 0.0509963ZM10.014 16.3157C8.73852 16.3157 7.4917 15.9375 6.43119 15.2289C5.37069 14.5203 4.54412 13.5131 4.05603 12.3347C3.56793 11.1564 3.44022 9.85971 3.68905 8.60875C3.93788 7.3578 4.55207 6.20873 5.45396 5.30684C6.35584 4.40496 7.50492 3.79076 8.75587 3.54193C10.0068 3.29311 11.3035 3.42081 12.4818 3.90891C13.6602 4.39701 14.6674 5.22357 15.376 6.28408C16.0846 7.34458 16.4628 8.5914 16.4628 9.86686C16.4628 11.5772 15.7834 13.2175 14.574 14.4269C13.3646 15.6363 11.7243 16.3157 10.014 16.3157ZM16.4902 4.74916C16.2352 4.74909 15.9858 4.6734 15.7738 4.53164C15.5617 4.38988 15.3964 4.18842 15.2989 3.95274C15.2013 3.71706 15.1758 3.45774 15.2256 3.20757C15.2754 2.9574 15.3983 2.72762 15.5787 2.54727C15.759 2.36693 15.9889 2.24412 16.239 2.19438C16.4892 2.14464 16.7485 2.1702 16.9842 2.26783C17.2199 2.36546 17.4213 2.53077 17.563 2.74287C17.7047 2.95496 17.7803 3.20431 17.7803 3.45939C17.7803 3.62879 17.7469 3.79653 17.6821 3.95304C17.6173 4.10954 17.5222 4.25173 17.4024 4.3715C17.2826 4.49127 17.1404 4.58627 16.9839 4.65107C16.8274 4.71587 16.6596 4.7492 16.4902 4.74916Z" fill="#FFF2F2"/>
</svg>
