<svg width="32" height="32" viewBox="0 0 32 32" fill="none" xmlns="http://www.w3.org/2000/svg">
<path d="M31.0954 23.4848L26.6298 19.0191C25.0349 17.4242 22.3235 18.0622 21.6856 20.1355C21.2071 21.571 19.6122 22.3684 18.1768 22.0494C14.987 21.2519 10.6808 17.1052 9.88339 13.7559C9.40492 12.3205 10.3619 10.7256 11.7973 10.2472C13.8706 9.60922 14.5086 6.89791 12.9137 5.30301L8.44799 0.837318C7.17208 -0.279106 5.25821 -0.279106 4.14178 0.837318L1.11149 3.86761C-1.9188 7.05739 1.43047 15.5103 8.92646 23.0063C16.4224 30.5023 24.8754 34.0111 28.0652 30.8213L31.0954 27.791C32.2119 26.5151 32.2119 24.6012 31.0954 23.4848Z" fill="#FFF2F2"/>
</svg>
