<svg width="32" height="21" viewBox="0 0 32 21" fill="none" xmlns="http://www.w3.org/2000/svg">
<path d="M31.7181 1.60756L22.0132 11.25L31.7181 20.8924C31.8936 20.5257 32 20.1204 32 19.6875V2.8125C32 2.37956 31.8936 1.97425 31.7181 1.60756ZM29.1875 0H2.8125C2.37956 0 1.97425 0.106438 1.60756 0.281875L14.0115 12.6233C15.1083 13.7201 16.8918 13.7201 17.9885 12.6233L30.3924 0.281875C30.0257 0.106438 29.6204 0 29.1875 0ZM0.281875 1.60756C0.106438 1.97425 0 2.37956 0 2.8125V19.6875C0 20.1204 0.106438 20.5258 0.281875 20.8924L9.98681 11.25L0.281875 1.60756Z" fill="#FFF2F2"/>
</svg>
