<svg width="12" height="14" viewBox="0 0 12 14" fill="none" xmlns="http://www.w3.org/2000/svg">
<path d="M7 14C3.1402 14 0 10.8598 0 7C0 3.1402 3.1402 0 7 0C8.4026 0 9.7563 0.4137 10.9148 1.1964C11.6012 1.6601 11.7818 2.5926 11.318 3.279C10.8542 3.9654 9.9218 4.14605 9.2354 3.6822C8.57475 3.23595 7.80175 3 7 3C4.7944 3 3 4.7944 3 7C3 9.2056 4.7944 11 7 11C7.81035 11 8.4903 10.7604 9.02095 10.2878C9.12635 10.1936 9.22481 10.092 9.31555 9.9836C9.84785 9.34885 10.7939 9.2658 11.4288 9.79795C12.0636 10.3303 12.1467 11.2763 11.6144 11.9111C11.4302 12.1309 11.2304 12.3371 11.0164 12.528C9.9349 13.491 8.5462 14 7 14Z" fill="#666A93"/>
</svg>
