<svg width="32" height="32" viewBox="0 0 32 32" fill="none" xmlns="http://www.w3.org/2000/svg">
<path d="M31.1372 13.9184L31.135 13.9163L18.0816 0.863312C17.5251 0.306562 16.7854 0 15.9986 0C15.2117 0 14.472 0.306375 13.9153 0.863063L0.868643 13.9094C0.864268 13.9138 0.859893 13.9184 0.855518 13.9228C-0.287107 15.0719 -0.285107 16.9364 0.861143 18.0827C1.38477 18.6066 2.07646 18.9101 2.81596 18.9418C2.84596 18.9447 2.87627 18.9462 2.90677 18.9462H3.42702V28.5524C3.42702 30.4534 4.97364 32 6.87502 32H11.9819C12.4995 32 12.9194 31.5803 12.9194 31.0625V23.5312C12.9194 22.6638 13.625 21.9583 14.4925 21.9583H17.5046C18.3721 21.9583 19.0776 22.6639 19.0776 23.5312V31.0625C19.0776 31.5803 19.4973 32 20.0151 32H25.1221C27.0235 32 28.5701 30.4534 28.5701 28.5525V18.9463H29.0525C29.8391 18.9463 30.5789 18.6399 31.1358 18.0833C32.2833 16.9351 32.2837 15.0674 31.1372 13.9184Z" fill="#FFF2F2"/>
</svg>
