<svg width="40" height="40" viewBox="0 0 40 40" fill="none" xmlns="http://www.w3.org/2000/svg">
<path d="M20 0C8.95432 0 0 8.95432 0 20C0 31.0457 8.95432 40 20 40C31.0457 40 40 31.0457 40 20C40 8.95432 31.0457 0 20 0ZM32.3566 25.0832C32.2606 26.9846 31.7263 28.8597 30.3406 30.2306C28.9415 31.6146 27.0576 32.1303 25.1378 32.2254H14.8622C12.9422 32.1303 11.0586 31.615 9.65944 30.2306C8.27368 28.8597 7.73944 26.9846 7.64344 25.0832V14.9168C7.73944 13.0154 8.27376 11.1403 9.65944 9.76928C11.0586 8.38528 12.9425 7.8696 14.8622 7.77464H25.1378C27.0578 7.8696 28.9414 8.38504 30.3406 9.76928C31.7263 11.1403 32.2606 13.0154 32.3566 14.9168L32.3566 25.0832Z" fill="#FFF2F2"/>
</svg>
