<svg width="24" height="24" viewBox="0 0 24 24" fill="none" xmlns="http://www.w3.org/2000/svg">
<path d="M12 24C8.79469 24 5.78123 22.7518 3.51469 20.4853C1.24823 18.2188 0 15.2053 0 12C0 8.79469 1.24823 5.78123 3.51469 3.51469C5.78123 1.24823 8.79469 0 12 0C15.2053 0 18.2188 1.24823 20.4853 3.51469C22.7518 5.78123 24 8.79469 24 12C24 15.2053 22.7518 18.2188 20.4853 20.4853C18.2188 22.7518 15.2053 24 12 24ZM12 2.8125C6.93398 2.8125 2.8125 6.93398 2.8125 12C2.8125 17.066 6.93398 21.1875 12 21.1875C17.066 21.1875 21.1875 17.066 21.1875 12C21.1875 6.93398 17.066 2.8125 12 2.8125Z" fill="#666A93"/>
</svg>
